<svg height='100px' width='100px'  fill="#000000" xmlns="http://www.w3.org/2000/svg" xmlns:xlink="http://www.w3.org/1999/xlink" version="1.1" x="0px" y="0px" viewBox="0 0 226.8 226.8" style="enable-background:new 0 0 226.8 226.8;" xml:space="preserve"><path d="M113.4,22.7c-50.1,0-90.7,40.6-90.7,90.7s40.6,90.7,90.7,90.7s90.7-40.6,90.7-90.7C204,63.3,163.4,22.7,113.4,22.7z   M157.6,141.7c-15.1-3.5-30.9-29.5-30.9-29.5s9.1,26.3,16.6,34.4c7.5,8.1,2.8,13.6,2.8,13.6s-5.1,7.3-14.2-2  c-15.6-15.5-9.9-47-9.9-47s-2.2,2.5-17.4,9.7c-13.7,6.6-29.3,22.9-30,24.2c-2.8,5.3-7.3,4.8-8.9,1.7c-2.5-4.7,1.2-6.5,4.9-7.7  c4.5-1.4,25.3-15.8,31.4-21.3c6.1-5.5,16.6-13,16.6-13s-18.4-5.7-33.8-17.3C69.4,76,76.5,68.7,76.5,68.7s6.3-6.1,12.2,3.6  c3,7.3,30.7,27.1,30.7,27.1S101.8,73.5,102.9,60c0.5-5.7,7-8.6,11.6-5.3c14.7,10.5,9.8,44.9,9.8,44.9c3.2-1.6,6.9-1,6.9-1  c2-0.2,2.2-3,2.2-3s-2.5-4.5,1.5-5.7c5.3-1.3,3.7,5.3,3.7,5.3s5.2-0.7,5.1,3.2c-0.3,5.1-4.8,2.6-4.8,2.6s-3.6-2.6-5.8,0  c-0.8,4.1-3.8,7.1-3.8,7.1s29.6,8.8,37.7,20.9C171.1,135.2,165.1,143.4,157.6,141.7z"></path></svg>